PathFileType	4	(X/Y/Z)	D:\TRACE\v60_Jaco2_6-2-23\JustBodyDRS_Motion3_7-platform.trc
DataRate	CameraRate	NumFrames	NumMarkers	Units	OrigDataRate	OrigDataStartFrame	OrigNumFrames
100.00	100.00	      72	5	mm	100.00	876	      7000
Frame#	Time	Left_Front			Right_Front			Left_Aft			Right_Aft			Post			
		X1	Y1	Z1	X2	Y2	Z2	X3	Y3	Z3	X4	Y4	Z4	X5	Y5	Z5	

876	8.750	-778.33173	-21.38945	-657.79425	792.32233	-23.12527	-635.14771	-709.60822	31.92711	475.07477	705.14716	33.80766	580.68353	17.99011	1259.99548	-1030.27515	
877	8.760	-778.21826	-21.52026	-657.87897	792.62299	-23.37074	-635.16974	-709.47668	32.01034	475.02887	705.29022	33.96912	580.59387	18.19703	1259.73865	-1030.99292	
878	8.770	-778.11731	-21.70746	-657.90936	792.78064	-23.55927	-635.19507	-709.28491	32.16041	475.09357	705.39618	34.02911	580.55652	17.86728	1259.24414	-1031.24500	
879	8.780	-778.03522	-21.77701	-657.87018	793.06000	-23.65812	-635.12665	-709.07776	32.23323	475.15073	705.62329	34.17760	580.58105	18.38804	1259.13000	-1031.95044	
880	8.790	-777.79797	-21.92129	-657.72961	793.26373	-23.81821	-635.11029	-708.93170	32.25367	475.15295	705.82013	34.26174	580.59296	18.68132	1258.82922	-1032.53577	
881	8.800	-777.64294	-22.00504	-657.67078	793.40173	-23.92096	-635.22681	-708.77258	32.32373	475.08990	706.02637	34.34646	580.51367	19.04080	1258.48511	-1032.92712	
882	8.810	-777.09387	-22.63569	-657.62885	793.62012	-24.03479	-635.25952	-708.63934	32.42453	475.05151	706.19757	34.42524	580.41199	18.82269	1258.06787	-1032.94202	
883	8.820	-777.14404	-22.31662	-657.86786	793.78210	-24.20219	-635.28076	-708.45544	32.55723	475.04092	706.45123	34.56998	580.30951	19.18924	1257.99365	-1033.35962	
884	8.830	-776.78479	-22.47469	-657.85913	794.05933	-24.35537	-635.25391	-708.13489	32.64428	475.04434	706.79572	34.73731	580.30237	19.42954	1257.82568	-1033.65210	
885	8.840	-776.38531	-22.77186	-657.88599	794.27515	-24.47047	-635.26532	-707.85730	32.72009	475.06763	707.08698	34.92754	580.34094	19.79139	1257.53943	-1033.91748	
886	8.850	-776.05200	-22.93147	-658.08087	794.51935	-24.61902	-635.28003	-707.56714	32.88155	475.06653	707.21570	35.04936	580.30762	20.00039	1257.43115	-1034.05664	
887	8.860	-775.76025	-23.14382	-658.03839	794.69000	-24.78580	-635.34265	-707.29980	33.01406	474.96570	707.52222	35.25174	580.24457	20.20058	1257.33447	-1034.21094	
888	8.870	-775.63519	-23.13137	-658.13885	794.93835	-24.93927	-635.35083	-707.15668	33.04622	474.89417	707.78540	35.41202	580.18018	20.44872	1256.98267	-1034.46069	
889	8.880	-775.60400	-23.14861	-658.25354	795.17139	-25.15151	-635.43524	-707.04132	33.17267	474.75461	707.95221	35.50727	580.15894	20.29168	1256.65222	-1034.32654	
890	8.890	-775.30530	-23.45902	-658.00757	795.38416	-25.28662	-635.51166	-706.85602	33.24336	474.67023	708.13715	35.58568	580.16858	20.70278	1256.39478	-1034.85571	
891	8.900	-775.07452	-23.72782	-657.93768	795.79932	-25.27463	-635.33624	-706.52905	33.27630	474.64276	708.25549	35.63235	580.15906	21.06185	1255.95764	-1035.34033	
892	8.910	-774.82330	-24.11914	-657.89923	796.00085	-25.33679	-635.38611	-706.20251	33.47504	474.57224	708.35309	35.67495	580.07257	21.54023	1255.79004	-1035.79736	
893	8.920	-774.64484	-24.38854	-657.89771	796.23242	-25.47880	-635.47675	-705.92029	33.62348	474.53857	708.59436	35.80180	580.03156	21.89408	1255.50671	-1036.25500	
894	8.930	-774.66412	-25.24404	-658.05731	796.41040	-25.78036	-635.57922	-705.71698	33.69279	474.48462	708.86853	35.93878	579.94775	21.79844	1255.26685	-1036.73962	
895	8.940	-774.59845	-25.32259	-658.64258	796.63617	-25.94364	-635.56049	-705.51935	33.84022	474.41238	709.19177	35.90338	580.06329	22.20370	1255.05457	-1037.12097	
896	8.950	-774.46875	-25.35332	-658.52887	796.80896	-26.20866	-635.61963	-705.32477	33.91319	474.35712	709.37390	36.20762	580.00494	22.42362	1254.64868	-1037.69080	
897	8.960	-774.40894	-25.32155	-658.50146	796.99438	-26.48073	-635.70032	-705.16956	33.98083	474.34964	709.76306	36.58490	579.75903	22.29121	1254.33679	-1037.97729	
898	8.970	-773.77411	-25.24912	-658.22607	797.27563	-26.66173	-635.69690	-704.91327	34.10811	474.30518	709.93591	36.76572	579.68573	22.79120	1254.10376	-1038.60132	
899	8.980	-773.23492	-25.53517	-658.19128	797.48297	-26.71058	-635.72662	-704.72797	34.28234	474.25562	710.22534	36.95440	579.65894	23.09267	1253.71936	-1038.96973	
900	8.990	-772.84155	-25.82525	-658.05225	797.67010	-26.92157	-635.80133	-704.69562	34.73280	474.04352	710.54852	37.16039	579.61176	23.16109	1253.35632	-1039.45911	
901	9.000	-772.72717	-26.01020	-658.01672	797.70245	-27.14494	-635.82379	-704.42841	34.86082	473.99963	710.68048	37.23201	579.56799	23.44883	1253.17847	-1039.97571	
902	9.010	-772.56030	-26.13407	-658.11786	797.81769	-27.33063	-635.86230	-704.31598	34.98298	473.97415	710.71124	37.29017	579.54651	23.66571	1253.01965	-1040.25220	
903	9.020	-772.39032	-26.46614	-658.33160	798.13715	-27.32819	-635.84161	-704.10577	35.09620	474.01852	710.83728	37.31093	579.54279	23.52809	1252.61389	-1040.22290	
904	9.030	-772.17755	-26.63567	-658.40973	798.46149	-27.42393	-635.84277	-703.89612	35.23222	473.94794	710.97339	37.37703	579.54993	23.94002	1252.77673	-1040.60840	
905	9.040	-771.99414	-26.55217	-658.26123	798.69452	-27.61625	-635.86414	-703.69580	35.33109	473.94180	711.09491	37.43048	579.47949	24.05398	1252.58044	-1040.86401	
906	9.050	-771.80511	-27.03141	-658.48871	798.89636	-27.81310	-635.76532	-703.40717	35.44600	473.81418	711.21802	37.49080	579.40186	24.22328	1252.33545	-1040.96777	
907	9.060	-771.58295	-26.92830	-658.30762	798.94043	-28.10722	-635.89282	-703.14941	35.42689	473.71704	711.17206	37.61148	579.47046	24.52921	1251.96289	-1041.12000	
908	9.070	-771.43231	-27.05906	-658.35370	799.25555	-28.09119	-635.94153	-702.95081	35.39600	473.73999	711.61340	37.88439	579.38275	24.76204	1251.66492	-1041.14197	
909	9.080	-771.58368	-26.80241	-658.47931	799.47760	-28.21234	-636.01575	-702.99994	35.68172	473.76511	712.10193	38.04664	579.24811	25.12508	1251.38574	-1041.41846	
910	9.090	-771.51544	-26.86537	-658.57306	799.64636	-28.29032	-636.04315	-702.83698	35.85433	473.72046	712.27777	38.13294	579.17261	25.26936	1251.21606	-1041.70776	
911	9.100	-771.44666	-26.90859	-658.59058	799.62976	-28.56670	-636.14520	-702.68066	35.95695	473.66983	712.40747	38.33133	579.10107	25.32089	1251.06079	-1042.04077	
912	9.110	-771.34613	-26.97733	-658.66559	799.72333	-28.73761	-636.17896	-702.52246	36.02918	473.72855	712.51050	38.40380	579.05811	25.55768	1250.84302	-1042.44812	
913	9.120	-771.12372	-27.18777	-658.71576	799.87164	-28.87982	-636.20996	-702.32611	36.12090	473.70090	712.82587	38.58363	579.06500	25.69215	1250.75366	-1042.85291	
914	9.130	-770.86609	-27.39525	-658.64288	800.04132	-28.97554	-636.21161	-702.12976	36.20249	473.62335	712.97321	38.62274	579.07288	26.01849	1250.47217	-1043.36353	
915	9.140	-770.47607	-27.62897	-658.49512	800.28967	-28.99029	-636.22083	-702.00311	36.33756	473.45657	713.10223	38.63324	579.12067	25.77697	1250.16809	-1043.49011	
916	9.150	-770.30402	-27.65075	-658.54974	800.48987	-29.07643	-636.28094	-701.85309	36.42304	473.41315	713.33868	38.69902	579.23102	26.19588	1250.21106	-1044.13171	
917	9.160	-770.06262	-27.86218	-658.57129	800.51727	-29.19981	-636.28619	-701.72638	36.46408	473.45279	713.12677	38.42391	579.27686	26.36676	1250.02686	-1044.40759	
918	9.170	-769.82892	-27.98586	-658.49915	800.65039	-29.29304	-636.32855	-701.62531	36.47205	473.49683	713.67004	38.82874	579.05060	26.55900	1249.85510	-1044.52136	
919	9.180	-769.69092	-27.97406	-658.38159	800.76660	-29.32622	-636.32983	-701.43573	36.34438	473.49664	713.76648	38.83258	579.03589	26.85356	1249.62170	-1044.60046	
920	9.190	-769.56360	-28.06444	-658.45905	800.90503	-29.33101	-636.30756	-701.33746	36.40336	473.52429	713.82178	38.84883	579.01312	26.70243	1249.71826	-1044.37378	
921	9.200	-769.48926	-28.01740	-658.50214	801.14453	-29.26306	-636.22266	-701.14618	36.44237	473.45929	713.91608	38.89011	578.99097	26.97469	1249.70178	-1044.26416	
922	9.210	-769.28607	-28.16161	-658.58997	801.17377	-29.32818	-636.29059	-700.98828	36.39098	473.45300	714.12909	38.88967	578.93091	26.85770	1249.74060	-1043.96594	
923	9.220	-769.22717	-28.21355	-658.59766	801.19550	-29.41861	-636.37891	-700.83081	36.36376	473.45969	714.38934	38.99176	578.95593	26.88005	1249.66333	-1043.73596	
924	9.230	-769.14984	-28.40269	-658.71686	801.34784	-29.43748	-636.35724	-700.77637	36.40864	473.41235	714.61267	39.02287	578.92798	26.96130	1249.61218	-1043.59375	
925	9.240	-769.14001	-28.37782	-658.66003	801.46100	-29.45095	-636.31085	-700.71198	36.43962	473.39288	714.59631	39.04113	578.91614	26.99135	1249.60657	-1043.46448	
926	9.250	-768.86505	-28.27122	-658.78186	801.60907	-29.32571	-636.28461	-700.66992	36.55968	473.31299	715.46252	39.46012	579.02301	27.04292	1249.59412	-1043.55896	
927	9.260	-768.87207	-28.02401	-658.92542	801.69855	-29.24843	-636.29401	-700.60645	36.59878	473.27512	715.43909	39.40923	579.03070	27.16212	1249.62805	-1043.70239	
928	9.270	-768.70117	-28.05748	-658.76544	801.94550	-29.27282	-636.05243	-700.62036	36.54439	473.28543	715.50848	39.44386	579.02625	27.30489	1249.57617	-1044.03455	
929	9.280	-768.64917	-28.15105	-658.60089	801.85150	-29.63858	-636.22784	-700.56024	36.40229	473.38196	715.51251	39.43740	579.03998	27.34393	1249.61292	-1044.25562	
930	9.290	-768.68970	-28.19507	-658.57208	801.87146	-29.62144	-636.27234	-700.51855	36.43937	473.38123	715.52997	39.42465	579.04559	27.58857	1249.55615	-1044.49902	
931	9.300	-768.63086	-28.16687	-658.73242	802.14612	-29.26438	-636.14124	-700.44427	36.46728	473.35803	714.76605	38.98856	578.94196	27.74317	1249.59961	-1044.57397	
932	9.310	-768.52521	-27.94664	-658.87708	802.30145	-29.19920	-636.08685	-700.40582	36.52600	473.32797	714.76044	38.91961	578.95569	27.78721	1249.80115	-1044.67957	
933	9.320	-768.81079	-27.48299	-658.50653	802.39423	-29.18435	-636.01721	-699.96277	35.90785	473.68018	714.79211	38.95017	578.98120	27.74096	1249.83826	-1044.67419	
934	9.330	-768.64160	-27.61836	-658.75299	802.32581	-29.16182	-636.03870	-700.10016	36.08846	473.59567	714.75482	38.84343	578.95300	27.74210	1249.88062	-1044.55664	
935	9.340	-768.95050	-27.35563	-658.42590	802.25616	-29.14101	-636.04144	-700.21790	35.97971	473.65482	714.74060	38.82764	578.97009	27.77733	1249.95667	-1044.37292	
936	9.350	-768.53790	-27.84950	-658.85168	802.12372	-29.22331	-636.10175	-700.25037	35.92042	473.73486	714.75378	38.80704	578.97327	27.78396	1250.21411	-1044.10071	
937	9.360	-768.52728	-27.54799	-658.76794	802.42865	-29.00209	-636.06757	-700.17322	35.92854	473.71289	714.78741	38.66630	579.01093	27.88063	1250.41479	-1043.72021	
938	9.370	-768.55566	-27.46062	-658.73553	802.40515	-28.87151	-635.99170	-700.12671	35.91750	473.75540	714.76593	38.51748	579.03992	27.82890	1250.66016	-1043.27405	
939	9.380	-768.51141	-27.41999	-658.74744	802.44580	-28.77849	-635.99146	-700.03070	35.79688	473.79279	714.82159	38.43873	579.10168	27.79633	1250.84338	-1042.85388	
940	9.390	-768.60187	-27.20111	-658.67456	802.34766	-28.68521	-635.96326	-700.07501	35.66124	473.85861	714.79858	38.35406	579.12640	27.91349	1250.95850	-1042.57080	
941	9.400	-768.62195	-27.05292	-658.63586	802.20386	-28.58188	-636.01276	-700.13776	35.58761	473.89499	714.79254	38.27597	579.14160	27.89182	1251.03223	-1042.16492	
942	9.410	-768.64465	-26.87978	-658.55682	802.17181	-28.43826	-636.01733	-700.11914	35.53983	473.92383	714.63831	38.10839	579.34949	27.84150	1251.29724	-1041.69812	
943	9.420	-768.54260	-26.66299	-658.43585	802.27295	-28.24763	-635.92120	-700.10803	35.48290	473.92526	714.85046	38.16215	579.21198	27.89960	1251.51990	-1041.30688	
944	9.430	-768.47668	-26.44817	-658.30853	802.41040	-28.01562	-635.89569	-700.05383	35.42113	473.91394	715.01477	38.02449	579.31885	27.76275	1251.77368	-1041.05396	
945	9.440	-768.52167	-26.34815	-658.33759	802.32947	-27.99940	-635.92480	-700.09979	35.27779	473.88071	715.11560	37.95117	579.37628	27.68853	1252.12366	-1040.75073	
946	9.450	-768.55475	-26.33601	-658.34296	802.29944	-27.93893	-635.94031	-700.09430	35.14523	473.96811	715.02148	37.80801	579.41693	27.65131	1252.33130	-1040.56116	
947	9.460	-768.56354	-26.23371	-658.20343	802.15839	-27.85670	-635.90295	-700.10168	35.05778	473.99100	715.13544	37.67380	579.48505	27.63873	1252.61572	-1040.28564	
